HIERARCHY
ROOT root
{
	OFFSET	0	13.1	24.9
	CHANNELS 6  Xposition Yposition Zposition Xrotation Yrotation Zrotation
	JOINT spine_1
	{
		OFFSET	0	9.99999	0
		CHANNELS 3  Xrotation Yrotation Zrotation
		JOINT spine_2
		{
			OFFSET	0	112	-10
			CHANNELS 3  Xrotation Yrotation Zrotation
			JOINT spine_3
			{
				OFFSET	0	206.5	19.3
				CHANNELS 3  Xrotation Yrotation Zrotation
				JOINT spine_4
				{
					OFFSET	0	110.4	14.6
					CHANNELS 3  Xrotation Yrotation Zrotation
					JOINT neck_1
					{
						OFFSET	0	71.8	-50.3
						CHANNELS 3  Xrotation Yrotation Zrotation
						JOINT neck_2
						{
							OFFSET	0	86.2	-25.8
							CHANNELS 3  Xrotation Yrotation Zrotation
							JOINT head_ee
							{
								OFFSET	0	179.8	-8.7
								CHANNELS 3  Xrotation Yrotation Zrotation
								End Site
								{
									OFFSET	1	0	0
								}
							}
						}
					}
					JOINT left_clavicle
					{
						OFFSET	-43.2	22.4	-70.8
						CHANNELS 3  Xrotation Yrotation Zrotation
						JOINT left_shoulder
						{
							OFFSET	-93.9	-5.79999	48.7
							CHANNELS 3  Xrotation Yrotation Zrotation
							JOINT left_elbow
							{
								OFFSET	-291.4	-30.8	15.2
								CHANNELS 3  Xrotation Yrotation Zrotation
								JOINT left_lowarm_twist
								{
									OFFSET	-110.7	-3.89999	13.6
									CHANNELS 3  Xrotation Yrotation Zrotation
									JOINT left_hand
									{
										OFFSET	-110.7	-3.89999	13.6
										CHANNELS 3  Xrotation Yrotation Zrotation
										JOINT left_ee
										{
											OFFSET	-80.8	-5.10001	12.1
											CHANNELS 3  Xrotation Yrotation Zrotation
											End Site
											{
												OFFSET	1	0	0
											}
										}
									}
								}
							}
						}
					}
					JOINT right_clavicle
					{
						OFFSET	43.2	22.4	-70.8
						CHANNELS 3  Xrotation Yrotation Zrotation
						JOINT right_shoulder
						{
							OFFSET	93.9	-5.79999	48.7
							CHANNELS 3  Xrotation Yrotation Zrotation
							JOINT right_elbow
							{
								OFFSET	291.4	-30.8	15.2
								CHANNELS 3  Xrotation Yrotation Zrotation
								JOINT right_lowarm_twist
								{
									OFFSET	110.7	-3.89999	13.6
									CHANNELS 3  Xrotation Yrotation Zrotation
									JOINT right_hand
									{
										OFFSET	110.7	-3.89999	13.6
										CHANNELS 3  Xrotation Yrotation Zrotation
										JOINT right_ee
										{
											OFFSET	80.8	-5.10001	12.1
											CHANNELS 3  Xrotation Yrotation Zrotation
											End Site
											{
												OFFSET	1	0	0
											}
										}
									}
								}
							}
						}
					}
				}
			}
		}
	}
	JOINT left_hip
	{
		OFFSET	-82.8	-127.5	0.300001
		CHANNELS 3  Xrotation Yrotation Zrotation
		JOINT left_knee
		{
			OFFSET	-28.2	-396.7	2.2
			CHANNELS 3  Xrotation Yrotation Zrotation
			JOINT left_ankle
			{
				OFFSET	-11.7	-411.3	35.4
				CHANNELS 3  Xrotation Yrotation Zrotation
				JOINT left_toes
				{
					OFFSET	0	-60	-88.6
					CHANNELS 3  Xrotation Yrotation Zrotation
					JOINT left_foot_ee
					{
						OFFSET	-22.5	-16.5	-42.2
						CHANNELS 3  Xrotation Yrotation Zrotation
						End Site
						{
							OFFSET	1	0	0
						}
					}
				}
			}
		}
	}
	JOINT right_hip
	{
		OFFSET	82.8	-127.5	0.300001
		CHANNELS 3  Xrotation Yrotation Zrotation
		JOINT right_knee
		{
			OFFSET	28.2	-396.7	2.2
			CHANNELS 3  Xrotation Yrotation Zrotation
			JOINT right_ankle
			{
				OFFSET	11.7	-411.3	35.4
				CHANNELS 3  Xrotation Yrotation Zrotation
				JOINT right_toes
				{
					OFFSET	0	-60	-88.6
					CHANNELS 3  Xrotation Yrotation Zrotation
					JOINT right_foot_ee
					{
						OFFSET	22.5	-16.5	-42.2
						CHANNELS 3  Xrotation Yrotation Zrotation
						End Site
						{
							OFFSET	1	0	0
						}
					}
				}
			}
		}
	}
}
MOTION
Frames: 8
Frame Time: 0.02
1563.29 747.036 -1357.47 36.4606 72.6442 -33.6474 -1.6622 -0.264394 1.30091 -1.66132 -0.346632 1.28146 -1.66867 -0.642436 1.16172 -1.67027 -0.450917 1.24859 -11.4049 13.7767 -5.15113 -11.7662 29.407 -1.06729 -0.0 0.0 -0.0 -1.05043 15.4724 0.149227 8.67263 -35.0814 59.9141 1.652 -39.2921 0.589783 43.1421 -0.522702 -5.35798 -0.749183 26.7448 6.36466 -0.0 0.0 -0.0 11.0133 17.445 -21.8457 -21.3311 18.3324 -63.3315 0.475911 13.2656 -0.0553411 -8.66104 0.384426 -1.03734 6.12075 22.7343 -31.7782 0.0 0.0 0.0 -11.6418 7.56546 -0.212875 -7.22239 0.22929 1.08398 26.6135 -9.91868 -3.66396 -39.3955 0.0 0.0 -0.0 0.0 -0.0 13.7565 16.1413 -10.7769 -54.2814 1.61514 -7.86605 -15.8834 -23.6517 -2.46572 -8.16775 0.0 0.0 0.0 0.0 0.0 
1550.79 749.266 -1356.35 34.2394 72.0082 -31.5823 -1.44978 -0.188699 1.2873 -1.4489 -0.270224 1.27269 -1.45445 -0.561745 1.17356 -1.45618 -0.369369 1.24753 -14.1492 13.2876 -4.12554 -14.7581 27.842 0.5192 -0.0 0.0 -0.0 -0.976296 14.5897 0.143562 10.8821 -35.1169 60.0196 1.58031 -38.0525 0.544987 40.5063 -0.375859 -5.0545 -1.46826 25.9249 2.01875 -0.0 0.0 -0.0 11.0264 16.8983 -21.9042 -23.4953 18.5573 -63.2516 0.512868 14.2551 -0.0641322 -8.87006 0.395626 -1.06162 6.49542 23.0639 -34.3841 0.0 0.0 0.0 -14.2205 10.139 0.624986 -2.23749 0.0856386 0.33268 25.5676 -10.3592 -3.54981 -38.7285 0.0 0.0 -0.0 0.0 -0.0 19.0533 10.5277 -8.11505 -60.1431 2.21546 -8.5412 -11.0473 -22.3815 -1.69736 -8.62417 0.0 0.0 0.0 0.0 0.0 
1537.5 745.046 -1353.29 28.3373 70.9243 -25.6139 -1.1234 -0.0766351 1.2142 -1.12259 -0.153737 1.20686 -1.12538 -0.426485 1.13942 -1.12711 -0.241195 1.19247 -12.3165 13.762 -7.57315 -12.7405 30.9054 -3.13944 -0.0 0.0 -0.0 -1.14529 13.8971 -0.229216 12.8614 -35.4854 59.3915 1.64715 -39.2096 0.586713 40.5176 -0.37646 -5.05582 -1.27466 25.4631 2.89555 -0.0 0.0 -0.0 11.0041 16.9643 -21.8505 -24.4266 18.4173 -62.9968 0.427416 11.9549 -0.0447532 -8.89701 0.397077 -1.06474 6.77506 23.4438 -36.2627 0.0 0.0 0.0 -14.5506 11.9092 1.03389 -1.66806 0.0650792 0.247708 22.2398 -11.6639 -3.16901 -38.7445 0.0 0.0 -0.0 0.0 -0.0 22.1999 10.5789 -8.67561 -62.7704 2.50645 -8.8234 -8.41526 -22.6482 -1.29001 -8.79751 0.0 0.0 0.0 0.0 0.0 
1520.93 745.522 -1347.63 25.0396 69.9161 -22.1639 -1.07281 0.249074 1.19916 -1.07203 0.172269 1.21258 -1.06768 -0.109186 1.21987 -1.06975 0.0848256 1.22181 -15.3823 14.1019 -7.57009 -16.2281 31.3803 -2.04987 -0.0 0.0 -0.0 -0.614318 13.4016 0.571914 15.2266 -35.722 59.0315 1.71253 -40.3058 0.628531 38.2013 -0.259026 -4.78387 -1.82582 24.8786 -0.467391 -0.0 0.0 -0.0 10.5599 14.9122 -20.9452 -25.5801 18.1631 -62.8745 0.433081 12.1087 -0.045934 -7.60947 0.329426 -0.914606 7.03574 24.441 -37.5203 0.0 0.0 0.0 -15.32 13.3773 2.16423 -1.2162 0.0481635 0.180424 23.9274 -13.2131 -3.40957 -38.6278 0.0 0.0 -0.0 0.0 -0.0 24.3461 9.82025 -8.88898 -49.9505 1.21786 -7.3302 -9.73091 -15.4933 -1.46049 -14.1348 0.0 0.0 0.0 0.0 0.0 
1506.43 746.982 -1345.01 22.9437 69.9773 -19.9373 -1.05834 0.242602 1.16709 -1.0576 0.16785 1.18016 -1.05348 -0.105792 1.18733 -1.05544 0.0830396 1.18914 -15.9133 14.092 -7.91847 -16.8227 31.5222 -2.21632 -0.0 0.0 -0.0 -0.390257 13.5554 0.959201 17.2538 -35.6737 58.8914 1.74567 -40.8481 0.650088 35.3431 -0.129457 -4.44223 -2.10989 23.1229 -2.93534 -0.0 0.0 -0.0 10.7672 14.8035 -21.4138 -26.7928 17.4165 -61.9396 0.415447 11.6293 -0.0423073 -7.28305 0.312814 -0.876308 6.99506 23.6852 -37.8046 0.0 0.0 0.0 -16.272 15.2007 3.7501 -0.272096 0.0111082 0.0402783 23.7089 -9.98163 -3.32013 -39.2437 0.0 0.0 -0.0 0.0 -0.0 26.2958 8.87469 -8.69038 -40.8295 0.52038 -6.114 -6.5158 -12.8625 -0.968922 -16.216 0.0 0.0 0.0 0.0 0.0 
1492.4 750.234 -1343.62 21.5699 69.9124 -18.9076 -1.01949 0.501761 1.20728 -1.01877 0.423928 1.23675 -1.00877 0.131702 1.30073 -1.01098 0.33546 1.26362 -19.0692 14.053 -8.96298 -20.3622 31.6887 -2.23851 -0.0 0.0 -0.0 -0.0324784 15.2307 1.73962 18.9843 -35.5478 59.2812 1.94332 -43.9055 0.783353 33.1421 -0.0414013 -4.17502 -2.24754 21.414 -4.58818 -0.0 0.0 -0.0 10.5367 13.9268 -20.9294 -27.0196 18.8532 -62.4775 0.306094 8.62228 -0.0230752 -6.8771 0.29246 -0.828549 6.94526 23.8221 -37.3024 0.0 0.0 0.0 -16.8686 14.9964 4.74046 -0.278589 0.0113711 0.0412401 25.1694 -11.6651 -3.52795 -38.9762 0.0 0.0 -0.0 0.0 -0.0 26.0449 9.86007 -8.67604 -36.5395 0.261414 -5.50774 -2.22431 -9.96068 -0.327257 -20.0515 0.0 0.0 0.0 0.0 0.0 
1472.52 745.182 -1339.4 20.7716 69.3599 -18.7622 -1.07278 0.553266 1.3406 -1.0719 0.466847 1.37308 -1.05965 0.141242 1.44336 -1.06237 0.3674 1.40296 -20.2127 13.9369 -9.80177 -21.6173 31.7337 -2.73789 -0.0 0.0 -0.0 0.165637 16.6097 2.20741 20.5902 -35.3952 59.951 2.09593 -46.0698 0.891258 31.4572 0.0190221 -3.96835 -2.44136 20.4473 -6.22646 -0.0 0.0 -0.0 10.1477 12.6585 -20.104 -28.1397 17.7695 -62.401 0.269691 7.60966 -0.0179357 -6.92929 0.295058 -0.834697 7.08788 24.178 -38.1445 0.0 0.0 0.0 -17.757 14.3887 6.08984 -0.491469 0.0199246 0.0727893 25.9855 -12.8791 -3.6511 -39.7734 0.0 0.0 -0.0 0.0 -0.0 26.4047 8.55554 -8.3482 -29.2423 -0.0723421 -4.4386 -1.11761 -7.73327 -0.163991 -22.0767 0.0 0.0 0.0 0.0 0.0 
1448.63 735.688 -1338.95 23.3007 69.5317 -21.9043 -1.01235 0.344817 1.36062 -1.01136 0.257547 1.3798 -1.00422 -0.0627772 1.40222 -1.00693 0.159443 1.39454 -20.274 14.7214 -9.77349 -21.8747 33.2097 -2.26272 -0.0 0.0 -0.0 0.433907 17.2904 2.69531 22.1549 -35.6287 60.1066 2.187 -47.2855 0.957514 30.4661 0.0517153 -3.84598 -2.55349 19.2914 -7.49843 -0.0 0.0 -0.0 9.79624 11.0362 -19.37 -29.3608 17.2386 -62.0295 0.277434 7.82546 -0.0189755 -6.12603 0.255699 -0.739818 7.03231 24.4266 -37.5049 0.0 0.0 0.0 -20.8908 14.384 7.23875 -1.16586 0.0462459 0.172937 28.4196 -10.1849 -3.8753 -39.8805 0.0 0.0 -0.0 0.0 -0.0 26.0075 9.28337 -7.12187 -25.7727 -0.182632 -3.91763 4.37076 -4.15371 0.633964 -23.1968 0.0 0.0 0.0 0.0 0.0 
